<?xml version="1.0" standalone="no"?>
<!DOCTYPE svg PUBLIC "-//W3C//DTD SVG 20010904//EN"
 "http://www.w3.org/TR/2001/REC-SVG-20010904/DTD/svg10.dtd">
<svg version="1.0" xmlns="http://www.w3.org/2000/svg"
 width="617.000000pt" height="451.000000pt" viewBox="0 0 617.000000 451.000000"
 preserveAspectRatio="xMidYMid meet">
<metadata>
Created by potrace 1.16, written by Peter Selinger 2001-2019
</metadata>
<g transform="translate(0.000000,451.000000) scale(0.100000,-0.100000)"
fill="#000000" stroke="none">
<path d="M2871 3797 c-165 -19 -347 -102 -443 -203 -55 -59 -104 -146 -123
-222 -14 -60 -16 -134 -13 -642 l4 -575 27 -80 c42 -118 81 -181 171 -271 68
-68 97 -89 176 -127 136 -65 216 -81 380 -80 156 1 250 21 364 78 174 86 292
225 351 415 26 85 32 307 10 406 -32 148 -120 292 -227 373 -199 149 -460 181
-661 83 -43 -21 -79 -36 -81 -33 -2 3 -3 72 -2 152 1 143 1 146 31 194 39 64
100 96 178 96 119 0 196 -67 205 -179 2 -31 9 -63 14 -69 8 -10 70 -13 249
-13 235 0 238 0 250 22 18 33 5 219 -20 292 -98 281 -427 431 -840 383z m286
-1250 c68 -36 115 -128 117 -227 1 -92 -19 -152 -71 -210 -53 -59 -92 -73
-183 -68 -126 7 -198 88 -208 234 -13 201 93 317 268 294 25 -4 59 -14 77 -23z"/>
<path d="M4615 3798 c-174 -20 -314 -85 -431 -203 -98 -98 -146 -190 -176
-334 -18 -88 -19 -131 -15 -600 4 -560 4 -567 72 -706 90 -187 260 -314 480
-360 106 -22 313 -22 420 0 274 57 462 230 537 495 20 70 21 105 25 545 5 518
0 597 -48 729 -117 321 -438 482 -864 434z m235 -450 c63 -17 124 -80 145
-151 14 -47 15 -119 13 -528 -3 -467 -3 -475 -25 -515 -49 -93 -143 -141 -252
-131 -91 8 -155 48 -191 118 -37 71 -42 149 -38 596 3 422 4 429 26 478 40 87
94 130 181 145 49 8 69 6 141 -12z"/>
<path d="M1127 3724 c-4 -4 -7 -47 -7 -95 0 -103 7 -98 -129 -96 -52 1 -100
-3 -108 -8 -11 -8 -13 -39 -11 -140 l3 -130 123 -3 122 -3 0 -65 0 -65 118 3
117 3 3 63 3 62 252 0 c145 0 268 5 290 11 53 14 102 62 122 117 20 56 34 297
18 313 -8 8 -111 12 -235 9 -15 0 -18 -10 -18 -58 0 -69 -13 -90 -61 -101 -48
-11 -213 -14 -299 -5 l-69 7 -3 91 -3 91 -111 3 c-60 1 -113 -1 -117 -4z"/>
<path d="M850 3010 c-77 -14 -120 -69 -120 -158 0 -60 29 -109 80 -134 75 -38
174 -9 209 61 64 124 -32 255 -169 231z"/>
<path d="M1138 3003 c-16 -4 -18 -20 -18 -149 l0 -144 459 0 c365 0 460 3 464
13 3 7 5 70 6 139 2 118 1 128 -18 138 -20 10 -852 13 -893 3z"/>
<path d="M795 2538 c-3 -13 -4 -79 -3 -148 l3 -125 243 -3 242 -2 0 -175 0
-175 -242 -2 -243 -3 0 -145 0 -145 619 -3 c489 -2 621 0 628 10 9 15 11 232
2 266 l-6 22 -249 0 -249 0 0 175 0 175 249 0 249 0 4 38 c10 75 9 209 -1 235
l-11 27 -615 0 -615 0 -5 -22z"/>
<path d="M3053 1290 c-102 -22 -181 -92 -209 -185 -13 -46 -15 -91 -12 -228 3
-162 5 -175 30 -222 50 -96 121 -137 248 -143 96 -4 174 18 232 66 61 52 103
193 61 204 -10 3 -51 6 -90 7 -62 2 -73 0 -73 -14 0 -31 -31 -82 -56 -94 -47
-21 -103 -14 -135 18 l-29 29 0 171 0 171 28 30 c59 67 161 43 184 -45 11 -40
15 -45 38 -41 14 2 53 5 88 5 l62 1 0 43 c-1 84 -61 167 -150 206 -53 23 -158
34 -217 21z"/>
<path d="M3800 1294 c-106 -20 -170 -66 -213 -153 l-32 -66 1 -175 c0 -160 2
-179 23 -227 28 -63 91 -124 154 -148 65 -25 214 -18 273 13 56 29 103 77 128
132 19 40 21 63 21 230 0 182 0 186 -28 242 -31 63 -83 110 -146 133 -45 16
-143 26 -181 19z m110 -169 c52 -27 60 -57 60 -225 0 -172 -9 -202 -66 -226
-47 -20 -95 -9 -131 28 -28 29 -28 29 -31 183 -4 175 6 211 61 239 40 20 70
20 107 1z"/>
<path d="M410 1283 c0 -4 47 -177 104 -383 l103 -375 89 0 89 0 42 205 c23
113 42 210 43 215 2 14 22 -63 66 -257 l37 -168 92 0 93 0 91 365 c50 201 91
374 91 385 0 20 -5 21 -92 18 l-93 -3 -44 -202 c-25 -112 -46 -201 -48 -199
-2 2 -25 93 -52 202 l-48 199 -89 0 -89 0 -32 -145 c-17 -80 -38 -172 -45
-205 l-14 -60 -50 205 -50 205 -97 3 c-53 1 -97 -1 -97 -5z"/>
<path d="M1487 1283 c-4 -3 -7 -177 -7 -385 l0 -378 275 0 275 0 0 75 c0 92
11 87 -203 83 l-157 -3 0 77 0 77 118 3 117 3 3 73 c2 53 0 72 -10 73 -7 1
-60 2 -118 3 l-105 1 -3 73 -3 72 181 0 180 0 0 80 0 80 -268 0 c-148 0 -272
-3 -275 -7z"/>
<path d="M2177 1283 c-4 -3 -7 -177 -7 -385 l0 -378 277 2 277 3 2 63 c0 41
-4 68 -13 77 -10 10 -52 13 -182 12 l-169 -2 -6 64 c-4 36 -7 166 -6 290 1
124 1 234 1 244 -1 15 -12 17 -84 17 -46 0 -87 -3 -90 -7z"/>
<path d="M4306 1268 c-7 -30 -7 -694 0 -725 6 -22 10 -23 95 -23 l89 0 1 228
c0 179 3 223 12 209 7 -10 30 -46 52 -80 40 -61 41 -62 90 -65 l50 -3 50 83
50 82 3 -227 2 -227 90 0 90 0 0 385 0 385 -87 0 -88 0 -79 -125 c-43 -69 -79
-125 -81 -125 -1 0 -28 42 -60 93 -105 167 -93 157 -189 157 -78 0 -84 -1 -90
-22z"/>
<path d="M5145 1277 c-3 -6 -4 -179 -3 -382 l3 -370 273 -3 273 -2 -3 77 -3
78 -178 0 -177 0 0 78 0 77 120 0 120 0 0 75 c0 53 -4 75 -12 76 -7 1 -52 0
-100 -1 -128 -2 -128 -2 -128 81 l0 69 180 0 180 0 0 80 0 80 -270 0 c-208 0
-272 -3 -275 -13z"/>
</g>
</svg>
